<?xml version="1.0" standalone="no"?>
<!DOCTYPE svg PUBLIC "-//W3C//DTD SVG 20010904//EN"
 "http://www.w3.org/TR/2001/REC-SVG-20010904/DTD/svg10.dtd">
<svg version="1.0" xmlns="http://www.w3.org/2000/svg"
 width="200.000000mm" height="160.000000mm" viewBox="0 0 1052 744"
 preserveAspectRatio="xMidYMid meet">
<metadata>
Created by potrace 1.13, written by Peter Selinger 2001-2015
</metadata>
<g>
<path d="M8718 15071 c-152 -50 -258 -196 -258 -356 0 -111 68 -236 165 -303
50 -34 50 -34 78 -165 47 -221 50 -193 -35 -278 -158 -159 -216 -383 -149
-584 20 -60 20 -60 -263 -345 -155 -157 -375 -379 -487 -494 -205 -208 -205
-208 -280 -187 -104 29 -251 29 -345 0 -278 -86 -458 -343 -441 -629 10 -156
89 -318 206 -421 72 -63 125 -93 221 -127 63 -22 93 -26 185 -26 94 0 122 4
194 28 83 28 83 28 110 3 102 -93 392 -355 461 -417 47 -41 116 -104 155 -140
38 -36 99 -91 133 -122 64 -57 64 -57 48 -120 -49 -195 5 -399 146 -553 16
-16 28 -35 28 -42 0 -17 -333 -1010 -342 -1019 -2 -2 -38 -10 -79 -19 -152
-31 -305 -136 -387 -265 -20 -30 -40 -58 -46 -62 -6 -4 -40 -5 -76 -3 -36 2
-137 7 -224 11 -152 6 -158 5 -142 -12 19 -18 36 -57 35 -77 0 -7 -5 -1 -11
13 -9 21 -12 22 -15 7 -3 -10 1 -24 7 -32 9 -11 9 -15 1 -15 -7 0 -10 -27 -9
-82 1 -83 1 -83 8 -18 6 64 6 64 11 20 5 -43 5 -44 17 -20 10 22 11 17 8 -35
-5 -71 -38 -172 -63 -191 -16 -12 -9 -13 52 -14 39 0 141 -3 229 -7 159 -6
159 -6 179 -52 38 -88 110 -178 184 -229 33 -23 33 -23 -13 -68 -26 -26 -59
-75 -77 -112 -27 -58 -31 -78 -32 -152 0 -112 30 -191 101 -265 188 -197 496
-150 617 95 30 60 32 72 32 166 0 97 -1 104 -37 172 -37 71 -37 71 31 105 69
35 69 35 402 -187 333 -223 333 -223 330 -328 -4 -177 53 -329 169 -444 33
-32 59 -66 60 -74 0 -8 -16 -76 -35 -150 -38 -150 -70 -277 -181 -710 -42
-162 -79 -301 -84 -309 -4 -8 -32 -20 -61 -28 -161 -40 -321 -169 -393 -315
-38 -76 -38 -76 -149 -78 -62 0 -177 -5 -257 -9 -90 -5 -146 -5 -149 1 -2 5
-30 30 -63 54 -146 107 -334 109 -478 5 -58 -42 -94 -87 -128 -158 -24 -52
-27 -70 -27 -163 0 -97 2 -110 31 -170 39 -83 111 -155 194 -194 60 -29 73
-31 170 -31 100 0 108 2 173 35 41 21 88 56 118 87 49 52 49 52 162 58 211 10
302 17 344 25 43 7 43 7 73 -47 17 -30 56 -80 85 -111 30 -31 55 -59 55 -63 0
-5 -9 -23 -19 -41 -45 -79 -52 -214 -15 -309 43 -112 162 -217 271 -239 83
-18 188 -8 254 22 171 79 258 256 220 449 -7 33 -11 62 -9 64 2 2 65 -44 141
-102 85 -64 144 -103 153 -99 8 3 17 0 20 -8 3 -7 26 -28 52 -47 26 -18 49
-37 50 -41 2 -4 10 -8 18 -8 9 0 13 -4 9 -9 -3 -5 5 -13 17 -17 13 -4 35 -19
50 -33 16 -14 30 -25 33 -23 3 1 22 -12 42 -30 74 -66 72 -63 62 -105 -26
-112 6 -265 77 -376 26 -40 52 -75 58 -79 8 -5 8 -15 0 -35 -47 -115 -186
-457 -203 -495 -11 -27 -18 -48 -14 -48 3 0 -1 -8 -9 -17 -8 -10 -31 -58 -51
-108 -20 -49 -66 -162 -102 -250 -37 -88 -69 -167 -72 -176 -3 -12 -22 -18
-71 -23 -37 -3 -88 -12 -113 -20 -126 -39 -261 -136 -331 -238 -46 -69 -2 -65
-339 -29 -175 19 -175 19 -250 94 -84 84 -148 115 -259 124 -278 22 -502 -251
-424 -518 19 -66 54 -127 96 -169 25 -26 29 -34 17 -41 -8 -5 -18 -9 -23 -9
-4 0 -5 -7 -2 -16 3 -8 2 -13 -3 -10 -11 7 -33 -18 -24 -27 3 -4 1 -7 -5 -7
-8 0 -12 -22 -12 -64 0 -58 3 -66 34 -101 23 -25 40 -36 51 -31 9 3 13 2 10
-4 -3 -5 5 -9 17 -9 67 -1 84 1 105 14 20 13 22 13 25 -8 2 -12 -1 -42 -6 -66
-11 -50 -50 -81 -102 -81 -34 0 -84 33 -84 56 0 8 -7 14 -15 14 -11 0 -15 -11
-15 -40 0 -35 3 -41 28 -47 15 -4 56 -8 92 -7 93 1 147 32 188 109 19 37 28
173 14 213 -10 29 -10 29 63 35 55 4 85 12 119 32 46 27 46 27 46 -148 0 -97
3 -182 6 -191 5 -13 -2 -16 -40 -16 -35 0 -46 -4 -46 -15 0 -13 20 -15 137
-13 98 2 138 6 141 16 2 8 -10 12 -42 12 -46 0 -46 0 -46 215 0 184 -2 215
-15 215 -8 0 -15 5 -15 10 0 12 -18 13 195 -10 99 -11 185 -20 192 -20 13 0
-16 -60 -29 -60 -5 0 -8 -4 -8 -9 0 -5 -18 -36 -41 -70 -24 -36 -38 -68 -35
-77 3 -8 2 -13 -3 -9 -13 8 -54 -63 -47 -81 5 -12 23 -15 93 -13 88 2 88 2 93
-44 6 -47 6 -47 -33 -47 -26 0 -37 -4 -34 -12 3 -9 33 -13 106 -13 82 0 100
-3 96 -14 -18 -48 -27 -110 -24 -179 10 -203 169 -361 375 -370 175 -8 313 76
385 233 46 102 48 215 5 325 -5 11 9 21 53 38 60 23 60 23 194 -84 135 -107
135 -107 141 -173 25 -242 279 -419 511 -357 230 61 367 299 300 522 -22 74
-86 166 -148 213 -82 62 -152 83 -267 79 -109 -3 -93 -11 -265 126 -84 67
-100 84 -98 105 14 158 14 201 -1 270 -21 100 -84 229 -136 281 -33 33 -41 49
-31 67 6 10 35 79 65 153 30 74 75 186 100 248 46 113 53 137 38 144 -4 2 -18
18 -31 35 -22 33 -22 33 -1 33 12 0 20 6 18 13 -4 16 23 97 32 97 4 0 11 16
14 35 4 19 11 35 16 35 6 0 10 6 10 13 0 6 11 39 24 72 13 33 30 80 37 105 7
25 16 47 19 50 12 11 40 77 46 108 4 18 11 35 15 38 5 3 9 13 9 23 0 10 9 21
20 24 11 3 18 1 15 -3 -10 -16 130 41 155 63 14 13 43 36 65 52 49 36 54 41
90 90 16 22 41 54 56 70 15 17 29 44 32 61 3 17 12 45 22 63 9 18 12 30 6 27
-13 -9 -2 26 12 35 5 3 9 46 10 95 2 72 -3 101 -22 154 -13 36 -30 72 -36 80
-25 31 -27 40 -8 33 31 -11 -49 58 -117 102 -61 39 -90 51 -185 75 -87 22
-228 4 -328 -42 -47 -22 -47 -22 -75 0 -15 12 -70 52 -122 89 -52 38 -111 83
-130 101 -19 18 -45 35 -57 38 -12 3 -20 11 -18 17 3 7 -30 38 -73 70 -234
176 -210 143 -204 276 6 141 -5 194 -60 309 -28 60 -59 104 -109 157 -70 74
-70 74 -24 252 26 98 71 275 101 393 30 118 77 301 105 407 27 105 49 194 49
196 0 3 21 10 47 16 110 28 218 87 293 160 43 42 114 144 134 193 15 35 15 35
243 40 228 6 228 6 263 -26 87 -78 182 -111 299 -104 141 9 256 86 321 214 28
54 34 79 38 147 9 178 -75 313 -243 389 -70 31 -206 32 -285 0 -66 -26 -90
-43 -145 -99 -41 -43 -41 -43 -270 -53 -152 -7 -231 -8 -233 -1 -8 23 -86 138
-109 158 -24 23 -24 23 17 77 74 98 103 212 80 321 -26 127 -113 240 -228 293
-51 24 -68 27 -167 27 -99 0 -116 -3 -170 -28 -79 -37 -166 -128 -196 -205
-31 -77 -36 -217 -12 -287 18 -50 18 -50 -41 -82 -58 -32 -58 -32 -270 109
-507 339 -450 286 -457 433 -7 131 -21 194 -65 275 -21 39 -63 99 -79 115 -5
6 -20 21 -32 35 -23 26 -23 26 138 500 88 261 166 493 173 514 11 40 12 40 81
53 158 29 316 140 396 279 56 97 70 142 76 243 6 104 -70 57 691 427 106 52
201 94 211 94 10 0 24 -7 31 -15 22 -26 131 -82 204 -104 84 -26 221 -28 309
-5 65 17 188 76 207 100 18 21 41 17 91 -14 24 -15 90 -51 145 -79 188 -96
185 -93 204 -155 83 -267 419 -357 626 -166 86 79 124 167 124 289 0 216 -194
394 -410 376 -37 -3 -84 -13 -105 -21 -37 -16 -37 -16 -239 88 -201 105 -201
105 -198 153 7 102 -50 274 -119 359 -53 65 -130 132 -186 162 -60 31 -60 31
-66 348 -4 175 -7 363 -7 420 0 98 1 102 23 108 13 3 55 28 93 55 86 60 172
169 211 266 26 65 28 80 28 216 0 146 0 146 75 199 41 29 139 100 217 157 142
104 142 104 188 92 106 -27 253 19 340 106 87 87 131 227 105 340 -28 126 -97
213 -215 271 -71 35 -76 36 -166 32 -111 -4 -180 -31 -253 -98 -56 -51 -107
-152 -114 -221 -5 -57 17 -36 -276 -254 -93 -69 -172 -125 -176 -125 -4 0 -32
11 -63 25 -64 30 -173 55 -237 55 -137 0 -293 -65 -400 -166 -69 -65 -69 -65
-242 -19 -148 40 -258 69 -528 140 -31 8 -46 17 -48 31 -19 114 -89 241 -183
328 -71 65 -132 100 -232 132 -31 10 -57 22 -58 28 -3 43 -9 77 -33 193 -27
132 -27 132 7 181 46 68 61 125 55 221 -11 196 -154 337 -353 347 -50 3 -86
-1 -127 -15z m1089 -1937 c502 -133 473 -123 479 -153 26 -119 92 -242 171
-319 34 -33 123 -93 154 -104 9 -4 19 -19 22 -35 3 -15 6 -206 6 -423 1 -396
1 -396 -31 -408 -52 -19 -161 -106 -206 -164 -80 -104 -132 -250 -132 -371 0
-44 0 -44 -77 -80 -43 -19 -224 -107 -403 -194 -448 -220 -402 -202 -453 -166
-166 119 -390 147 -573 72 -34 -13 -29 -16 -148 95 -17 15 -69 62 -115 105
-133 121 -153 139 -211 195 -30 28 -130 121 -222 205 -93 84 -168 156 -168
161 0 5 7 39 16 77 22 95 15 257 -15 336 -23 58 -23 58 220 310 230 239 611
627 697 711 40 38 40 38 94 20 39 -14 81 -19 163 -18 94 0 121 4 184 27 92 33
154 72 217 137 27 28 57 50 66 50 10 0 129 -30 265 -66z m-1377 -11928 c0 -81
-15 -106 -66 -106 -28 0 -34 4 -44 35 -6 19 -10 70 -8 113 3 78 3 78 60 53 57
-26 57 -26 58 -95z m835 -28 c0 -108 0 -108 -72 -108 -40 0 -73 4 -73 8 0 4
11 23 25 42 13 18 22 36 20 41 -3 4 -1 9 4 11 12 4 71 100 66 107 -2 4 4 7 13
7 15 0 17 -14 17 -108z m217 -85 c30 -31 30 -31 -11 -74 -22 -24 -41 -46 -41
-50 0 -4 -7 -15 -16 -23 -25 -25 -47 -6 -48 43 -2 41 -2 41 42 41 36 0 43 3
40 18 -3 12 -13 17 -41 17 -20 0 -37 3 -37 8 0 4 0 46 0 94 0 86 0 86 41 22
23 -35 55 -78 71 -96z"/>
<path d="M6110 9276 c-140 -41 -241 -142 -281 -282 -6 -22 -10 -79 -8 -126 4
-75 8 -94 41 -158 21 -41 36 -76 33 -78 -3 -3 -5 1 -5 8 0 8 -14 -2 -30 -20
-17 -19 -28 -40 -26 -47 3 -7 0 -15 -6 -19 -7 -5 -8 -2 -3 7 7 12 6 12 -7 1
-9 -8 -14 -20 -12 -27 3 -8 1 -22 -6 -32 -9 -16 -10 -15 -5 7 5 25 5 25 -7 0
-7 -14 -16 -28 -21 -31 -5 -4 -10 -18 -10 -33 -1 -14 -6 -26 -10 -26 -5 0 -6
-19 -3 -42 3 -24 3 -37 0 -30 -12 27 -20 9 -21 -50 -1 -35 1 -57 3 -50 8 17
27 15 21 -3 -4 -8 -2 -17 3 -20 6 -4 10 -20 10 -36 0 -18 4 -28 10 -24 6 3 10
-1 10 -9 0 -9 14 -23 31 -32 23 -11 30 -21 26 -35 -7 -26 20 -54 38 -39 10 8
20 4 42 -16 15 -14 27 -31 25 -36 -1 -5 2 -7 8 -3 6 4 18 1 27 -7 13 -10 17
-10 20 0 3 8 33 12 101 13 56 0 89 4 78 8 -18 7 -16 9 12 19 18 6 40 8 49 5
12 -5 14 -3 8 7 -6 10 -3 12 13 8 14 -4 20 -2 15 5 -4 6 0 8 10 4 11 -4 14 -2
10 9 -4 10 3 14 24 14 18 0 33 8 42 21 11 19 11 21 -4 16 -9 -4 -14 -3 -11 2
3 5 18 9 33 9 14 0 33 8 40 18 8 11 19 18 24 16 6 -1 8 6 4 19 -4 12 -3 19 1
16 5 -3 10 8 11 24 1 16 14 46 28 66 22 34 25 48 25 131 0 72 -3 91 -12 86
-10 -6 -10 -5 -2 7 7 8 11 27 9 42 -2 18 2 30 11 34 8 3 14 9 14 14 0 5 -12 2
-26 -7 -14 -10 -22 -20 -17 -23 4 -3 9 -14 10 -24 1 -13 -4 -17 -14 -13 -12 5
-14 1 -9 -18 3 -14 1 -28 -4 -31 -6 -4 -8 -11 -5 -16 11 -16 -37 -88 -76 -115
-81 -56 -142 -65 -239 -35 -45 14 -72 30 -101 61 -24 25 -38 48 -35 57 3 8 1
11 -4 8 -6 -3 -10 3 -10 14 0 10 -3 28 -6 38 -3 10 3 4 15 -14 25 -39 90 -88
138 -104 81 -26 206 5 265 68 24 26 60 94 62 119 1 6 14 27 30 45 75 89 120
251 98 351 -31 134 -124 251 -238 297 -72 28 -189 36 -254 17z"/>
<path d="M6830 8415 c-7 -8 -16 -12 -21 -9 -5 3 -9 -1 -9 -8 0 -7 -3 -46 -7
-85 -6 -73 -6 -73 201 -73 131 0 206 4 206 10 0 6 -76 11 -202 12 -203 2 -203
2 -43 6 88 2 197 0 243 -3 82 -7 82 -7 84 -38 0 -18 4 0 7 38 4 39 3 72 -1 75
-4 3 -1 17 6 31 17 34 4 44 -68 52 -72 7 -67 -3 6 -12 38 -4 53 -10 53 -21 0
-12 -21 -16 -120 -18 -140 -4 -285 6 -285 19 0 5 12 9 28 9 44 0 59 16 22 24
-43 8 -61 6 -30 -4 24 -8 23 -8 -7 -9 -18 -1 -33 4 -33 9 0 15 -16 12 -30 -5z"/>
<path d="M7003 8402 c-24 -2 -43 -7 -43 -13 0 -5 67 -9 160 -9 100 0 160 4
160 10 0 6 -19 11 -42 11 -95 4 -195 4 -235 1z"/>
<path d="M5730 8189 c0 -20 21 -49 36 -49 5 0 3 5 -4 12 -7 7 -12 22 -12 35 0
13 -4 23 -10 23 -5 0 -10 -9 -10 -21z"/>
<path d="M13299 5124 c-161 -49 -272 -187 -286 -355 -5 -58 -2 -82 21 -152 27
-84 27 -84 -80 -350 -107 -267 -107 -267 -144 -267 -53 0 -166 -32 -232 -66
-89 -45 -172 -120 -241 -217 -11 -17 -21 -16 -197 8 -102 14 -210 28 -240 31
-57 5 -146 17 -260 33 -36 5 -92 12 -125 16 -33 3 -78 8 -100 11 -40 6 -40 6
-40 -133 0 -76 -4 -159 -8 -184 -9 -47 -9 -47 70 -61 44 -8 81 -10 84 -5 8 11
51 -1 44 -12 -2 -5 21 -8 52 -8 34 0 59 -5 61 -12 2 -6 26 -11 57 -11 30 0 65
-4 79 -9 17 -7 26 -6 30 2 4 7 4 2 2 -10 -3 -15 0 -20 10 -16 8 3 14 13 15 22
0 10 2 12 6 3 2 -7 -5 -28 -16 -48 -27 -45 -26 -54 4 -54 14 0 87 -9 162 -19
76 -11 162 -22 191 -26 38 -5 52 -11 52 -23 0 -37 81 -180 133 -233 54 -57 54
-57 4 -91 -61 -40 -119 -122 -142 -199 -28 -92 -18 -210 25 -294 58 -114 160
-186 294 -207 155 -24 302 47 389 188 31 50 57 145 57 205 0 37 -26 126 -53
189 -5 12 7 19 55 34 34 11 81 29 105 42 44 22 44 22 71 0 15 -12 79 -60 143
-105 116 -83 116 -83 122 -138 13 -122 104 -246 226 -306 61 -30 73 -32 171
-32 97 0 110 2 170 31 120 58 193 146 226 274 49 193 -61 398 -256 474 -57 23
-163 31 -220 17 -44 -10 -46 -10 -115 39 -38 27 -104 73 -146 101 -76 52 -76
52 -67 93 14 59 3 200 -21 276 -23 72 -81 177 -123 221 -16 16 -28 35 -28 42
0 8 26 74 58 148 32 74 81 189 107 256 49 123 49 123 95 138 61 21 132 75 175
133 135 184 79 462 -117 575 -94 55 -214 71 -309 41z"/>
<path d="M706 1355 c-76 -27 -126 -81 -147 -159 -11 -40 -6 -116 8 -139 4 -7
8 -18 9 -26 2 -12 14 -27 62 -79 16 -18 114 -52 151 -52 43 0 91 11 86 20 -3
5 3 6 14 3 12 -3 29 8 54 37 48 56 53 80 19 80 -22 0 -30 -8 -44 -40 -12 -30
-26 -45 -54 -56 -46 -19 -109 -10 -140 21 -13 13 -25 21 -27 18 -7 -6 -9 22
-11 160 -2 64 1 117 6 117 4 0 8 6 8 14 0 8 14 26 31 40 66 55 185 22 205 -58
4 -17 13 -26 25 -26 16 0 19 8 19 49 0 49 -5 56 -50 66 -3 1 -23 7 -45 13 -53
16 -131 14 -179 -3z"/>
<path d="M1165 1363 c-11 -3 -22 -8 -25 -12 -3 -4 -17 -14 -31 -23 -32 -20
-55 -99 -45 -153 17 -87 131 -134 217 -89 32 16 32 16 25 -35 -4 -29 -12 -62
-18 -75 -27 -60 -149 -61 -164 -1 -9 37 -38 29 -42 -13 -4 -38 16 -49 111 -59
49 -5 59 -4 52 7 -6 10 -4 12 8 7 22 -8 66 8 95 36 61 57 87 186 56 283 -21
66 -75 129 -105 121 -11 -3 -19 -1 -19 4 0 9 -80 11 -115 2z m121 -58 c19 -47
18 -154 -2 -183 -20 -29 -79 -31 -94 -3 -5 11 -10 59 -10 107 0 96 10 113 63
114 23 0 31 -7 43 -35z"/>
<path d="M2412 1335 c-73 -49 -69 -80 4 -34 34 21 34 21 34 -154 0 -97 3 -182
6 -191 5 -13 -2 -16 -40 -16 -35 0 -46 -4 -46 -15 0 -13 20 -15 137 -13 98 2
138 6 141 16 2 8 -10 12 -42 12 -46 0 -46 0 -46 215 0 215 0 215 -48 215 -38
0 -58 -7 -100 -35z"/>
<path d="M4363 1364 c-13 -3 -23 -10 -23 -16 0 -6 -3 -8 -6 -5 -10 9 -60 -29
-89 -67 -14 -19 -30 -58 -36 -91 -19 -105 22 -200 110 -252 40 -24 56 -27 126
-27 86 0 126 14 178 63 42 39 58 75 64 151 5 57 2 75 -16 113 -45 93 -99 128
-209 132 -42 2 -87 1 -99 -1z m164 -61 c25 -32 28 -45 33 -154 3 -66 3 -120 0
-122 -3 -1 -13 -19 -22 -39 -23 -50 -81 -70 -134 -45 -19 9 -39 28 -46 42 -6
13 -14 22 -19 20 -4 -3 -5 5 -1 17 3 11 1 19 -4 16 -5 -4 -7 40 -3 107 4 86 9
119 24 141 45 71 125 78 172 17z"/>
<path d="M5086 1360 c-62 -19 -101 -80 -93 -148 8 -69 59 -105 189 -132 57
-11 91 -38 83 -64 -2 -6 -6 -23 -9 -38 -10 -44 -91 -62 -158 -33 -36 14 -68
52 -68 80 0 8 -9 15 -20 15 -17 0 -20 -7 -20 -50 0 -46 3 -51 28 -61 95 -36
216 -35 274 4 18 12 41 39 51 60 17 34 18 42 5 84 -17 60 -52 85 -153 113
-105 28 -125 41 -125 85 0 46 29 65 98 65 60 0 96 -18 118 -61 24 -47 45 -37
43 20 -2 49 -2 49 -64 60 -72 13 -138 13 -179 1z"/>
<path d="M6302 1350 c-45 -25 -72 -50 -72 -67 0 -8 -4 -11 -10 -8 -6 4 -7 -1
-3 -11 4 -11 3 -15 -5 -10 -9 5 -29 -32 -23 -43 2 -2 -3 -7 -11 -12 -9 -6 -13
-34 -13 -96 0 -93 18 -148 65 -203 21 -24 22 -24 36 -5 8 10 14 14 14 9 0 -6
-5 -15 -11 -21 -7 -7 -2 -16 18 -30 38 -27 73 -35 73 -17 0 8 -6 14 -13 14
-19 0 -63 86 -72 140 -11 63 -9 177 5 230 6 25 13 53 15 64 2 10 18 31 35 46
48 43 33 55 -28 20z"/>
<path d="M6493 1363 c-31 -6 -45 -27 -41 -64 4 -42 24 -49 33 -10 9 42 54 62
107 48 26 -6 42 -17 46 -29 2 -10 7 -18 11 -18 13 0 -5 -137 -22 -163 -9 -15
-55 -55 -102 -89 -81 -60 -92 -77 -79 -112 5 -14 29 -16 164 -16 178 0 170 -4
170 81 0 43 -2 49 -21 49 -17 0 -20 -4 -15 -24 3 -13 2 -26 -4 -28 -5 -2 -60
-2 -122 0 -92 3 -108 5 -91 15 84 47 135 83 182 125 48 44 54 53 58 98 4 43 2
54 -21 81 -39 46 -83 63 -163 62 -37 -1 -78 -4 -90 -6z"/>
<path d="M6940 1363 c-35 -7 -50 -21 -50 -48 0 -40 10 -57 26 -44 8 6 14 17
14 25 0 21 42 44 80 44 58 -1 74 -21 80 -100 3 -39 2 -70 -2 -70 -5 0 -8 -6
-8 -14 0 -7 -9 -25 -20 -38 -10 -14 -16 -29 -12 -33 4 -5 2 -5 -5 -2 -9 6 -55
-24 -83 -53 -3 -3 -22 -16 -42 -30 -31 -20 -38 -31 -38 -58 0 -32 0 -32 168
-30 167 3 167 3 170 66 3 58 2 62 -19 62 -17 0 -20 -5 -17 -25 5 -25 5 -25
-110 -25 -129 0 -131 -9 21 94 31 21 71 54 88 74 28 32 31 40 27 88 -4 44 -10
58 -34 79 -16 14 -45 30 -64 35 -35 10 -123 11 -170 3z"/>
<path d="M7460 1360 c0 -5 -3 -9 -7 -8 -18 5 -93 -48 -93 -65 0 -17 4 -17 45
7 44 26 44 26 47 -159 2 -102 2 -189 0 -193 -1 -4 -19 -6 -40 -4 -30 3 -39 0
-39 -12 0 -14 18 -16 135 -13 98 1 137 5 140 15 2 8 -10 12 -42 12 -46 0 -46
0 -46 215 0 215 0 215 -50 215 -27 0 -50 -4 -50 -10z"/>
<path d="M7865 1361 c-53 -24 -101 -100 -111 -175 -8 -59 4 -158 18 -150 7 4
8 2 4 -4 -9 -15 12 -54 24 -47 6 3 7 0 4 -8 -6 -16 49 -67 74 -68 9 0 28 -3
42 -5 14 -3 43 0 66 6 89 25 131 96 133 223 1 46 -2 76 -8 73 -5 -3 -7 3 -4
13 7 28 -25 89 -63 118 -26 19 -49 26 -96 29 -35 2 -72 0 -83 -5z m110 -31 c4
-6 10 -8 15 -5 4 3 6 -4 3 -15 -3 -11 -1 -20 3 -20 5 0 7 -75 4 -166 -5 -151
-7 -167 -25 -180 -21 -16 -71 -12 -90 7 -16 16 -13 352 4 372 15 19 76 23 86
7z"/>
<path d="M1712 1348 c3 -7 17 -13 31 -13 15 1 27 -3 27 -7 0 -4 0 -91 0 -193
0 -102 0 -189 0 -193 0 -5 -13 -7 -30 -4 -22 3 -30 0 -30 -10 0 -13 22 -15
120 -17 99 -1 120 1 120 13 0 9 -12 16 -32 18 -18 2 -32 6 -30 11 1 4 2 49 2
100 0 92 0 92 90 89 90 -3 90 -3 90 -103 0 -99 0 -99 -26 -99 -16 0 -24 -5
-21 -12 2 -9 34 -13 112 -13 78 0 110 4 113 13 2 8 -7 12 -30 12 -33 0 -33 0
-31 197 2 197 2 197 29 198 15 0 29 5 31 12 3 9 -25 12 -111 12 -95 -1 -116
-4 -116 -16 0 -10 8 -13 26 -11 26 3 26 3 26 -76 0 -82 -6 -94 -45 -90 -12 1
-48 3 -79 3 -56 1 -56 1 -60 81 -3 80 -3 80 30 80 20 0 32 5 32 13 0 10 -28
14 -121 16 -96 2 -120 0 -117 -11z"/>
<path d="M2790 1256 c0 -114 8 -131 44 -97 30 29 87 28 121 -1 23 -20 26 -31
28 -93 3 -111 -37 -152 -124 -126 -31 9 -40 18 -47 43 -4 17 -13 33 -20 36
-18 6 -27 -28 -13 -50 7 -12 8 -17 2 -13 -6 3 -11 -1 -11 -9 0 -18 85 -46 139
-46 54 0 111 19 137 45 13 13 24 21 24 17 0 -4 6 5 14 20 8 15 12 36 9 48 -3
12 0 20 6 20 7 0 9 5 4 13 -4 6 -6 20 -5 30 5 26 -41 81 -81 101 -43 20 -133
20 -167 1 -14 -8 -27 -14 -30 -15 -3 0 -5 25 -5 55 0 55 0 55 128 55 127 0
127 0 127 35 0 35 0 35 -140 35 -140 0 -140 0 -140 -104z"/>
<path d="M3410 1344 c0 -9 12 -14 33 -14 32 0 32 0 32 -195 0 -195 0 -195 -32
-195 -23 0 -33 -5 -33 -15 0 -12 15 -15 75 -15 60 0 75 3 75 15 0 10 -10 15
-29 15 -30 0 -30 0 -33 146 -2 80 0 150 3 155 3 5 21 -10 40 -33 19 -22 45
-53 59 -68 24 -26 54 -62 117 -140 64 -80 80 -92 115 -88 33 3 33 3 35 213 2
209 2 209 29 210 15 0 29 5 31 12 3 9 -17 12 -77 11 -54 -1 -79 -5 -77 -12 2
-6 20 -11 40 -11 25 1 34 -2 27 -9 -6 -6 -10 -71 -10 -151 0 -140 0 -140 -43
-95 -23 25 -54 61 -69 80 -15 19 -44 54 -65 77 -21 23 -53 60 -72 82 -33 41
-33 41 -102 40 -51 -1 -69 -5 -69 -15z"/>
<path d="M80 1080 c0 -40 0 -40 95 -40 95 0 95 0 95 40 0 40 0 40 -95 40 -95
0 -95 0 -95 -40z"/>
<path d="M5650 1080 c0 -40 0 -40 95 -40 95 0 95 0 95 40 0 40 0 40 -95 40
-95 0 -95 0 -95 -40z"/>
<path d="M19586 148 c-3 -7 -6 -41 -8 -75 -3 -47 -1 -63 9 -63 21 0 34 38 31
92 -3 49 -22 77 -32 46z"/>
<path d="M19920 100 c0 -47 3 -60 15 -60 12 0 15 13 15 60 0 47 -3 60 -15 60
-12 0 -15 -13 -15 -60z"/>
<path d="M19640 85 c0 -38 3 -45 20 -45 16 0 20 7 20 35 0 19 5 35 10 35 6 0
10 -16 10 -35 0 -24 5 -35 15 -35 10 0 15 10 15 29 0 35 19 53 21 19 1 -13 1
-29 0 -35 -1 -7 6 -13 16 -13 13 0 19 8 21 26 4 49 -11 60 -82 62 -66 2 -66 2
-66 -43z"/>
<path d="M19812 118 c-28 -28 -7 -78 33 -78 32 0 48 15 48 45 0 41 -52 62 -81
33z m48 -33 c0 -26 -14 -33 -25 -15 -9 14 1 40 15 40 5 0 10 -11 10 -25z"/>
</g>
</svg>
