<?xml version="1.0" standalone="no"?>
<!DOCTYPE svg PUBLIC "-//W3C//DTD SVG 20010904//EN"
 "http://www.w3.org/TR/2001/REC-SVG-20010904/DTD/svg10.dtd">
<svg version="1.0" xmlns="http://www.w3.org/2000/svg"
 width="842.000000pt" height="595.000000pt" viewBox="0 0 842.000000 595.000000"
 preserveAspectRatio="xMidYMid meet">
<metadata>
Created by potrace 1.13, written by Peter Selinger 2001-2015
</metadata>
<g transform="translate(0.000000,595.000000) scale(0.100000,-0.100000)"
fill="#000000" stroke="none">
<g>
<path d="M3625 4637 c-39 -39 -42 -58 -20 -101 9 -16 13 -36 10 -45 -3 -9 -6
-36 -7 -59 -1 -39 -5 -45 -38 -62 -50 -26 -74 -77 -66 -139 6 -42 3 -50 -21
-73 -35 -33 -83 -29 -83 6 0 12 -11 34 -25 49 -35 37 -91 38 -126 1 -43 -46
-25 -127 33 -146 7 -3 7 -12 -1 -27 -12 -21 -10 -42 5 -93 4 -15 -1 -18 -32
-18 -21 0 -51 -5 -68 -11 -29 -10 -39 -6 -132 47 -101 59 -102 59 -107 103 -6
49 -29 86 -77 119 -68 46 -176 18 -219 -58 -75 -134 58 -281 203 -226 43 17
43 17 149 -40 90 -48 107 -61 107 -81 0 -67 54 -129 122 -139 39 -7 39 -7 20
-28 -36 -39 -45 -66 -38 -118 6 -44 4 -52 -24 -86 -42 -51 -74 -51 -89 0 -27
88 -144 86 -166 -3 -9 -36 18 -87 50 -95 22 -6 25 -10 19 -38 -8 -45 28 -106
64 -107 18 -1 21 -3 9 -6 -20 -5 -37 -41 -37 -80 0 -14 -11 -41 -25 -59 -31
-41 -32 -85 -2 -119 51 -60 152 -19 150 60 -1 20 -6 42 -13 50 -8 9 -9 29 -5
54 4 22 3 46 -1 53 -20 31 -14 53 16 66 19 9 38 29 50 55 23 46 25 56 9 40 -6
-6 -20 -8 -30 -6 -20 5 -20 6 1 25 12 11 19 25 17 32 -3 8 4 11 23 8 20 -3 32
3 47 22 15 19 30 26 56 26 47 0 62 -19 47 -64 -24 -74 14 -132 88 -134 54 -2
79 15 111 72 26 45 26 44 -4 38 -14 -2 -25 0 -25 4 1 17 38 54 55 54 9 0 27
11 41 25 34 34 46 32 95 -15 23 -22 37 -40 31 -40 -15 0 -35 -67 -28 -95 8
-31 51 -81 76 -88 11 -3 20 -2 20 1 0 4 12 8 26 9 15 0 30 7 34 13 6 9 17 5
44 -15 42 -32 43 -39 16 -80 -20 -30 -20 -30 -21 5 -1 19 -2 42 -3 50 -1 11
-10 14 -36 12 -40 -4 -61 -18 -54 -35 2 -7 10 -58 17 -115 13 -98 13 -103 -6
-120 -45 -39 -58 -111 -31 -168 16 -34 16 -34 -44 -101 -33 -38 -81 -88 -105
-112 -42 -41 -44 -44 -29 -62 22 -25 32 -24 60 9 13 15 21 21 17 15 -11 -22
14 -14 26 8 9 17 8 20 -3 14 -7 -5 0 6 16 23 15 17 34 28 41 25 8 -2 19 5 25
17 9 18 9 21 0 15 -8 -5 -11 -3 -9 4 3 7 9 13 14 14 6 0 18 11 27 23 20 24 55
37 64 23 3 -6 -13 -30 -35 -54 -23 -25 -41 -49 -41 -55 0 -31 115 -36 126 -5
4 9 13 11 32 5 47 -13 91 0 128 38 19 19 34 43 34 54 0 10 4 18 9 18 14 0 -6
61 -25 80 -12 11 -18 12 -21 3 -3 -7 -13 -13 -22 -13 -13 0 -18 9 -19 34 -2
49 18 61 104 61 67 0 106 12 77 22 -7 3 -13 10 -13 16 0 8 4 7 12 -1 7 -7 19
-12 28 -12 13 0 13 1 0 10 -9 6 -10 10 -3 10 7 0 18 -10 24 -22 7 -13 11 -23
10 -23 -2 0 2 -11 7 -25 6 -14 17 -47 25 -74 15 -47 14 -51 -4 -74 -29 -37
-40 -91 -28 -135 11 -39 62 -97 85 -97 20 0 19 -138 -1 -164 -24 -32 -19 -82
13 -117 23 -25 36 -32 71 -33 37 -1 47 4 73 33 26 29 29 40 25 73 -3 22 -12
47 -21 56 -8 10 -18 47 -22 84 -7 66 -6 67 25 93 17 15 31 33 31 41 0 19 26
18 34 -2 3 -8 0 -25 -8 -37 -36 -57 -27 -130 24 -182 31 -32 31 -32 15 -126
-9 -52 -19 -111 -22 -131 -4 -28 -12 -39 -34 -49 -65 -26 -109 -110 -96 -178
7 -31 -5 -41 -46 -41 -62 -1 -109 -101 -73 -155 23 -34 71 -58 105 -50 37 8
77 52 86 92 8 38 22 50 38 34 6 -6 27 -11 47 -11 28 0 38 -6 51 -28 13 -23 13
-32 3 -57 -27 -63 -10 -143 40 -183 30 -23 31 -31 20 -112 -5 -39 -15 -64 -35
-88 -53 -61 -31 -147 45 -172 38 -12 89 3 114 33 22 26 26 82 8 117 -9 18 -14
42 -11 54 2 11 6 45 9 74 2 30 6 55 8 56 2 1 16 8 32 16 53 27 80 74 81 146 1
35 4 65 6 67 2 2 17 13 32 25 23 17 34 19 53 11 14 -5 39 -9 55 -9 26 0 29 -3
23 -24 -8 -35 20 -92 55 -110 44 -23 85 -20 120 10 63 53 47 151 -30 182 -38
15 -39 17 -32 46 15 60 7 114 -23 153 -15 21 -32 41 -37 44 -13 9 9 179 23
179 5 0 29 -12 53 -27 39 -24 46 -34 52 -71 12 -82 108 -153 182 -136 61 14
115 74 127 139 7 38 -23 104 -63 137 -45 38 -93 45 -150 21 -46 -19 -46 -19
-113 16 -38 19 -68 37 -68 40 0 3 16 16 36 29 48 31 78 99 70 157 -5 32 -3 45
9 55 11 9 13 15 5 20 -17 11 65 94 84 87 9 -4 18 -1 22 5 4 7 9 6 15 -3 6 -10
9 -11 9 -1 0 6 5 12 10 12 6 0 10 -7 10 -15 0 -8 5 -15 10 -15 6 0 10 -11 10
-25 0 -49 31 -94 76 -111 40 -15 45 -15 81 2 20 11 46 34 57 52 16 29 17 39 7
72 -12 42 -48 76 -90 87 -14 3 -30 10 -36 15 -5 5 -19 16 -30 24 -16 13 -17
15 -2 10 9 -3 17 -1 17 3 0 5 3 17 7 27 5 12 3 15 -6 9 -10 -6 -11 -3 -1 15
10 19 8 26 -19 54 -35 36 -38 51 -16 72 8 9 15 31 15 51 0 25 9 45 30 70 36
40 39 83 10 130 -46 75 -160 61 -189 -23 -13 -38 -13 -45 5 -80 14 -30 18 -55
16 -106 -4 -64 -5 -68 -38 -87 -52 -31 -75 -76 -72 -140 3 -55 3 -55 -49 -97
-48 -39 -54 -42 -89 -34 -21 5 -42 6 -46 4 -5 -3 -24 8 -44 25 -19 17 -32 31
-28 31 3 0 1 6 -5 14 -12 14 -5 72 11 93 11 14 -11 60 -42 86 -47 39 -130 34
-178 -12 -37 -34 -57 -101 -43 -142 9 -26 7 -31 -27 -59 -52 -43 -101 -42
-145 4 -17 18 -40 47 -50 65 -17 28 -17 33 -3 47 20 20 21 93 1 120 -8 12 -27
27 -43 33 -22 9 -31 22 -41 61 -7 27 -11 62 -10 77 1 15 -1 56 -5 90 -8 61 -7
64 25 104 27 35 33 51 33 94 1 41 -4 59 -26 87 -28 36 -28 36 7 71 19 19 35
43 35 52 0 14 3 15 14 6 11 -9 15 -8 20 5 3 9 4 20 0 25 -3 5 4 9 15 9 12 0
21 4 21 8 0 5 9 18 19 29 25 27 21 57 -9 61 -16 3 -35 -9 -64 -37 -42 -41 -42
-41 -65 -17 -48 51 -114 41 -160 -24 -13 -19 -21 -27 -18 -18 5 14 -3 20 -36
29 -103 28 -183 -29 -181 -128 1 -58 53 -117 97 -110 21 3 27 0 25 -12 -2 -10
-12 -15 -26 -13 -21 3 -23 0 -19 -37 4 -40 4 -40 -54 -34 -34 3 -70 1 -91 -6
-32 -11 -34 -10 -64 24 -37 45 -39 90 -5 158 18 37 22 56 16 84 -8 45 -35 84
-69 103 -24 12 -26 19 -26 74 1 38 6 68 15 80 21 28 19 79 -5 109 -45 57 -140
38 -161 -33 -10 -34 -9 -43 10 -75 12 -21 24 -62 27 -94 5 -50 3 -57 -15 -69
-19 -11 -21 -10 -21 17 0 38 -13 70 -39 98 -21 22 -21 24 -5 120 8 54 16 106
17 116 1 10 15 26 32 34 16 8 40 27 53 41 22 26 25 37 26 106 1 35 5 40 33 50
71 24 97 83 60 137 -30 45 -71 57 -112 34 -35 -18 -55 -51 -55 -90 0 -24 -2
-24 -47 -19 -60 8 -66 14 -53 50 15 39 5 87 -26 123 -23 28 -24 35 -18 90 4
40 15 72 30 93 13 17 24 44 24 59 0 37 -37 78 -77 85 -28 6 -38 1 -68 -29z
m48 -526 c4 -4 2 -22 -4 -39 -15 -45 -4 -96 31 -136 30 -33 30 -33 16 -107 -8
-41 -17 -92 -20 -114 -8 -49 -22 -64 -30 -32 -3 15 -20 30 -47 42 -39 18 -44
18 -87 3 -43 -16 -46 -16 -74 5 -26 19 -28 25 -23 67 10 78 14 88 37 94 39 10
63 55 63 117 0 44 6 62 25 86 22 28 29 31 65 26 22 -3 43 -9 48 -12z m23 -466
c-3 -8 -1 -15 5 -15 7 0 9 -13 4 -36 -5 -30 -2 -41 17 -61 17 -18 18 -22 5
-17 -9 3 -17 10 -17 15 0 17 -17 9 -48 -21 -18 -16 -38 -30 -45 -30 -8 0 -29
-18 -49 -39 -32 -36 -38 -38 -69 -32 -32 7 -34 10 -33 45 2 48 15 62 44 46 18
-9 21 -9 15 0 -6 10 3 11 38 6 39 -6 46 -5 41 7 -4 10 1 15 13 14 10 -1 17 4
16 11 -2 6 3 12 11 12 14 0 43 57 38 74 -4 12 6 36 14 36 3 0 4 -7 0 -15z
m-229 -11 c3 -9 12 -13 22 -9 14 6 14 5 -1 -11 -15 -15 -18 -15 -47 2 -27 16
-29 20 -14 26 27 10 33 9 40 -8z m950 -548 c33 -14 42 -24 47 -50 4 -18 4 -41
0 -50 -3 -9 -2 -22 4 -29 9 -12 26 -79 37 -144 6 -39 -12 -44 -40 -13 -10 12
-24 19 -30 16 -17 -6 -17 45 1 72 28 43 19 123 -17 142 -15 8 -19 7 -19 -5 0
-8 -7 -15 -16 -15 -12 0 -15 8 -13 34 2 19 0 38 -4 42 -9 10 -9 27 1 22 4 -2
26 -12 49 -22z m-387 -198 c0 -4 -11 -2 -25 4 -19 8 -25 19 -25 42 0 30 0 30
25 -4 14 -19 25 -37 25 -42z m540 -338 c0 6 5 8 10 5 6 -3 10 -13 10 -21 0
-12 -7 -14 -32 -9 -35 8 -58 22 -58 36 0 4 16 1 35 -7 22 -9 35 -10 35 -4z
m444 -50 c45 0 60 -11 85 -61 10 -21 10 -34 0 -68 -15 -51 -46 -68 -92 -51
-17 5 -31 9 -32 8 -1 -2 -8 -13 -14 -26 -10 -18 -9 -25 4 -38 14 -14 19 -11
16 9 0 4 4 7 9 7 14 0 12 -12 -5 -37 -8 -12 -11 -24 -7 -27 5 -3 9 -19 10 -35
2 -70 51 -120 126 -128 50 -6 48 0 31 -98 -2 -11 -4 -30 -4 -43 -1 -12 -9 -25
-18 -29 -72 -26 -118 -100 -110 -174 5 -42 3 -49 -22 -73 -27 -26 -31 -27 -70
-16 -23 6 -45 9 -49 6 -11 -6 -25 4 -44 32 -14 20 -14 27 0 65 18 53 5 112
-37 160 -29 32 -29 32 -5 162 13 72 23 131 24 133 0 1 5 2 11 2 7 0 31 16 55
35 31 26 47 48 55 78 16 57 19 119 7 134 -7 8 -3 19 11 34 19 20 19 24 6 39
-20 22 -19 36 1 16 9 -10 33 -16 58 -16z"/>
</g>
<g>
<path d="M4659 3941 c-21 -21 -29 -39 -29 -64 0 -37 29 -82 58 -92 10 -3 26
-21 35 -39 14 -31 14 -38 1 -64 -12 -26 -12 -34 1 -66 11 -26 21 -36 38 -36
12 0 32 -3 44 -6 16 -4 29 1 47 21 14 15 23 31 21 36 -11 17 13 17 29 0 25
-27 175 -24 205 3 49 44 34 138 -27 163 -47 20 -83 9 -125 -38 -20 -21 -42
-39 -50 -39 -9 0 -17 -3 -20 -7 -2 -5 -3 -3 -1 4 4 18 -8 24 -24 10 -13 -10
-15 -9 -10 5 4 10 1 19 -8 22 -8 3 -14 1 -14 -4 0 -6 -5 -10 -10 -10 -7 0 -7
7 0 20 6 11 8 25 4 32 -4 6 -8 38 -8 71 -2 52 -6 63 -30 83 -39 34 -89 32
-127 -5z"/>
</g>
<g>
<path d="M3520 2439 c-37 -13 -63 -63 -56 -104 7 -37 23 -54 57 -60 12 -3 25
-9 29 -14 9 -15 55 19 84 62 19 28 22 37 11 37 -17 0 -19 11 -6 26 6 5 0 20
-16 39 -14 17 -22 23 -18 15 7 -12 5 -13 -6 -2 -15 14 -43 14 -79 1z"/>
</g>
<g>
<path d="M3319 2321 c-79 -80 27 -210 119 -145 38 26 46 51 28 89 -9 18 -13
40 -10 49 4 11 -2 19 -21 26 -48 18 -85 12 -116 -19z"/>
</g>
<g>
<path d="M3604 2255 c-27 -11 -30 -17 -28 -49 2 -19 8 -44 13 -55 6 -10 8 -41
4 -68 -5 -45 -3 -53 23 -81 16 -17 42 -34 58 -36 62 -11 121 53 109 116 -3 16
-20 41 -38 57 -19 16 -40 42 -49 59 -9 17 -27 33 -43 37 -25 6 -26 8 -9 14 16
6 17 9 5 13 -8 3 -29 0 -45 -7z"/>
</g>
<g>
<path d="M2270 579 c0 -5 5 -8 12 -6 13 2 30 -70 17 -75 -4 -2 -4 -24 0 -50 4
-26 4 -51 -1 -56 -5 -5 -6 -16 -2 -25 7 -19 74 -25 74 -7 0 6 -6 10 -12 10
-10 0 -12 27 -10 109 4 110 4 110 -37 109 -23 0 -41 -4 -41 -9z"/>
</g>
<g>
<path d="M329 557 c-21 -15 -33 -30 -31 -41 2 -11 -1 -15 -7 -11 -18 10 -13
-73 5 -101 38 -57 122 -72 169 -28 15 14 25 27 22 30 -3 3 -16 -6 -30 -20 -28
-28 -53 -32 -90 -15 -22 10 -24 17 -26 84 -2 63 1 77 18 94 12 12 30 21 41 21
32 0 70 -22 70 -42 0 -10 5 -18 10 -18 6 0 10 11 10 25 0 48 -102 62 -161 22z"/>
</g>
<g>
<path d="M575 559 c-26 -18 -19 -19 20 -3 6 3 8 -30 5 -93 -4 -85 -7 -98 -22
-95 -9 1 -19 -2 -23 -8 -4 -6 20 -10 69 -10 44 0 76 4 76 10 0 6 -11 10 -25
10 -14 0 -25 6 -26 13 0 6 -1 52 -2 101 -2 81 -4 89 -22 92 -12 2 -34 -6 -50
-17z"/>
</g>
<g>
<path d="M803 568 c-19 -9 -30 -26 -38 -58 -1 -3 -5 -17 -9 -32 -10 -35 9 -94
37 -113 45 -31 119 -9 131 41 14 55 -48 109 -95 83 -24 -12 -30 17 -12 54 15
31 46 36 81 11 19 -13 22 -13 22 -1 0 27 -73 36 -117 15z m67 -137 c0 -46 -12
-71 -31 -71 -11 0 -19 3 -19 8 0 4 -4 24 -9 44 -7 31 -5 40 12 59 19 21 21 21
34 3 7 -10 13 -29 13 -43z"/>
</g>
<g>
<path d="M1090 569 c0 -5 6 -9 13 -9 20 0 11 -181 -10 -198 -14 -10 -8 -12 40
-12 31 0 57 5 57 10 0 6 -7 10 -15 10 -11 0 -15 11 -15 40 0 22 -1 43 -2 48
-2 4 17 10 42 13 45 6 45 6 3 7 -43 2 -43 2 -43 42 0 29 4 40 15 40 8 0 15 4
15 9 0 5 -22 9 -50 9 -27 1 -50 -3 -50 -9z"/>
</g>
<g>
<path d="M1230 570 c0 -5 9 -10 21 -10 11 0 17 -4 14 -10 -4 -6 -6 -49 -6 -95
1 -69 -2 -85 -14 -85 -8 0 -15 -4 -15 -10 0 -6 26 -10 58 -10 43 1 53 3 40 11
-15 8 -18 25 -18 104 0 78 3 95 15 95 8 0 15 5 15 10 0 6 -25 10 -55 10 -30 0
-55 -4 -55 -10z"/>
</g>
<g>
<path d="M1427 564 c-16 -9 -27 -18 -24 -21 3 -2 14 0 25 6 19 10 21 7 24 -57
2 -37 2 -81 0 -98 -3 -27 -6 -30 -28 -26 -14 2 -24 0 -24 -7 0 -7 26 -11 75
-11 46 0 75 4 75 11 0 5 -10 9 -22 7 -22 -3 -23 0 -28 102 -5 96 -7 105 -25
107 -11 1 -33 -5 -48 -13z"/>
</g>
<g>
<path d="M1632 564 c-28 -19 -29 -58 -1 -77 20 -15 20 -15 -5 -35 -56 -43 -20
-102 63 -102 34 0 49 6 67 26 30 32 30 48 -1 72 -27 22 -33 42 -11 42 8 0 17
7 20 16 9 22 8 24 -11 25 -11 0 -13 3 -5 6 19 7 14 19 -13 31 -36 16 -76 15
-103 -4z m79 -28 c10 -35 2 -56 -21 -56 -21 0 -30 36 -18 69 10 29 30 23 39
-13z m-1 -87 c0 -5 4 -8 9 -5 9 6 9 1 -4 -56 -6 -30 -37 -39 -51 -16 -8 13 -7
65 2 79 7 13 44 11 44 -2z"/>
</g>
<g>
<path d="M1978 557 c-60 -51 -66 -121 -14 -173 29 -29 41 -34 79 -34 44 0 100
30 85 45 -3 4 -16 -3 -27 -14 -24 -24 -59 -27 -86 -7 -14 10 -21 31 -25 80 -3
36 -3 66 0 66 3 0 10 10 15 23 19 43 115 27 115 -20 0 -7 4 -13 9 -13 5 0 8
11 7 25 -2 47 -110 62 -158 22z"/>
</g>
<g>
<path d="M2510 570 c0 -5 8 -10 18 -10 15 0 17 -11 16 -92 -1 -93 -1 -93 5
-19 6 74 6 74 57 15 29 -32 61 -70 71 -83 11 -13 30 -26 42 -28 22 -3 22 -2
20 104 -2 96 -1 108 14 105 9 -2 17 2 17 8 0 5 -16 10 -35 10 -19 0 -35 -5
-35 -11 0 -5 5 -7 10 -4 6 4 10 -23 10 -74 0 -50 -4 -81 -11 -81 -5 0 -8 4 -5
8 2 4 -18 32 -46 62 -27 29 -57 64 -65 77 -11 17 -25 23 -49 23 -19 0 -34 -4
-34 -10z"/>
</g>
<g>
<path d="M2847 564 c-16 -9 -26 -18 -23 -21 3 -3 12 0 21 7 9 7 17 11 20 9 3
-4 8 -140 6 -176 -1 -7 -12 -13 -26 -13 -14 0 -25 -4 -25 -10 0 -6 32 -10 76
-10 49 0 73 4 69 10 -4 6 -14 9 -23 8 -15 -3 -18 11 -22 102 -5 96 -7 105 -25
107 -11 1 -33 -5 -48 -13z"/>
</g>
<g>
<path d="M3037 573 c-4 -3 -7 -16 -6 -27 0 -21 0 -21 16 2 17 24 52 29 71 10
7 -7 12 -28 12 -49 0 -42 -27 -82 -71 -104 -17 -9 -29 -24 -29 -35 0 -18 7
-20 78 -20 79 0 79 0 79 33 1 17 -1 26 -4 20 -3 -9 -25 -13 -61 -12 -57 0 -57
0 -32 17 55 38 100 85 100 106 0 39 -40 66 -96 66 -28 0 -54 -3 -57 -7z"/>
</g>
<g>
<path d="M3388 552 c-15 -13 -26 -28 -23 -32 3 -5 1 -11 -5 -15 -13 -8 -13
-85 1 -85 5 0 8 -4 5 -9 -4 -5 8 -21 25 -35 44 -37 117 -37 159 2 35 31 49 89
31 134 -25 66 -135 89 -193 40z m122 -2 c14 -14 20 -34 21 -67 0 -27 2 -58 3
-70 2 -13 1 -21 -2 -19 -2 2 -12 -4 -23 -15 -23 -23 -56 -24 -81 -2 -14 12
-18 31 -18 77 0 98 8 111 63 115 9 0 26 -8 37 -19z"/>
</g>
<g>
<path d="M3636 564 c-9 -24 -7 -44 4 -44 6 0 10 6 10 14 0 7 10 21 23 29 22
16 22 16 -4 16 -16 1 -29 -6 -33 -15z"/>
</g>
<g>
<path d="M3715 567 c49 -29 18 -126 -52 -164 -18 -10 -33 -26 -33 -35 0 -16
10 -18 85 -18 85 0 85 0 85 30 0 30 -15 42 -22 18 -2 -9 -19 -12 -57 -8 -54 5
-54 5 -4 37 66 43 89 77 74 109 -11 24 -47 44 -79 44 -14 -1 -14 -3 3 -13z"/>
</g>
<g>
<path d="M3981 554 c-22 -28 -25 -42 -15 -68 8 -21 69 -50 89 -42 9 3 14 2 11
-3 -3 -5 3 -11 14 -14 24 -6 27 -39 5 -57 -10 -8 -29 -10 -55 -6 -25 4 -40 2
-40 -4 0 -5 24 -10 53 -10 43 0 58 5 75 23 44 47 20 94 -60 117 -49 15 -53 18
-53 45 0 26 4 30 32 33 38 4 73 -13 73 -33 0 -8 5 -15 10 -15 18 0 11 39 -9
50 -11 5 -40 10 -65 10 -36 0 -48 -5 -65 -26z"/>
</g>
<g>
<path d="M4196 564 c-9 -24 -7 -44 4 -44 6 0 10 6 10 14 0 7 10 21 23 29 22
16 22 16 -4 16 -16 1 -29 -6 -33 -15z"/>
</g>
<g>
<path d="M4275 567 c49 -29 18 -126 -52 -164 -18 -10 -33 -26 -33 -35 0 -16
10 -18 85 -18 85 0 85 0 85 30 0 30 -15 42 -22 18 -2 -9 -19 -12 -57 -8 -54 5
-54 5 -4 37 66 43 89 77 74 109 -11 24 -47 44 -79 44 -14 -1 -14 -3 3 -13z"/>
</g>
<g>
<path d="M4811 550 c-33 -34 -45 -75 -37 -132 6 -48 19 -71 50 -92 35 -22 43
-20 20 5 -16 18 -19 37 -19 114 0 77 3 96 19 114 30 33 1 25 -33 -9z"/>
</g>
<g>
<path d="M4916 564 c-9 -24 -7 -44 4 -44 6 0 10 6 10 14 0 7 10 21 23 29 22
16 22 16 -4 16 -16 1 -29 -6 -33 -15z"/>
</g>
<g>
<path d="M4995 567 c49 -29 18 -126 -52 -164 -18 -10 -33 -26 -33 -35 0 -16
10 -18 85 -18 85 0 85 0 85 30 0 30 -15 42 -22 18 -2 -9 -19 -12 -57 -8 -54 5
-54 5 -4 37 66 43 89 77 74 109 -11 24 -47 44 -79 44 -14 -1 -14 -3 3 -13z"/>
</g>
<g>
<path d="M5135 572 c-9 -10 -5 -52 5 -52 6 0 10 9 10 20 0 22 39 37 67 25 10
-5 25 -7 33 -6 10 1 11 -1 4 -6 -7 -4 -14 -26 -15 -48 -3 -30 -12 -48 -39 -72
-19 -18 -43 -35 -52 -39 -10 -3 -18 -14 -18 -24 0 -16 10 -18 85 -19 85 -1 85
-1 85 29 0 16 -4 30 -10 30 -5 0 -10 -4 -10 -10 0 -6 -26 -10 -57 -10 -58 1
-58 1 -28 25 17 14 34 25 39 25 15 0 66 59 66 75 0 9 -11 26 -24 39 -19 20
-33 24 -79 24 -31 -1 -59 -3 -62 -6z"/>
</g>
<g>
<path d="M5363 573 c-15 -6 -17 -43 -3 -43 6 0 10 7 10 15 0 22 48 31 67 12
21 -21 9 -65 -20 -77 -16 -6 -17 -9 -5 -9 45 -2 67 -80 29 -101 -31 -16 -57
-12 -75 13 -16 22 -16 22 -14 -3 3 -23 7 -25 58 -28 40 -1 61 3 76 15 23 19
45 71 25 59 -7 -4 -9 -1 -5 8 4 9 -4 20 -22 29 -27 14 -27 15 -7 25 31 17 34
38 12 66 -17 22 -28 26 -67 25 -26 0 -53 -3 -59 -6z"/>
</g>
<g>
<path d="M5605 554 c-44 -41 -45 -142 -2 -181 12 -10 38 -20 58 -22 63 -4 102
70 62 117 -20 24 -73 40 -73 23 0 -9 11 -14 30 -13 9 1 1 -101 -9 -111 -21
-21 -39 1 -42 52 -2 28 -1 51 4 51 4 0 7 5 7 11 0 5 -5 7 -12 3 -8 -5 -9 2 -5
26 4 18 7 36 7 41 0 5 7 9 15 9 8 0 15 4 15 8 0 16 -31 8 -55 -14z"/>
</g>
<g>
<path d="M5680 573 c8 -3 23 -13 34 -22 17 -15 18 -15 15 4 -3 14 -13 21 -34
22 -17 1 -23 0 -15 -4z"/>
</g>
<g>
<path d="M5823 563 c-12 -10 -24 -28 -26 -40 -2 -12 -6 -26 -10 -29 -20 -20 7
-104 42 -131 41 -31 94 -9 127 52 9 17 11 67 4 85 -1 3 -2 9 -1 14 3 13 -31
46 -41 40 -4 -3 -7 0 -6 8 5 21 -63 21 -89 1z m77 -19 c6 -14 10 -49 10 -79 0
-68 -14 -105 -39 -105 -21 0 -31 34 -31 111 0 58 14 99 35 99 9 0 20 -12 25
-26z"/>
</g>
<g>
<path d="M6015 562 c-8 -22 2 -27 20 -8 31 31 75 13 75 -31 0 -14 -10 -28 -27
-37 -16 -8 -23 -15 -16 -16 7 0 23 -10 36 -22 20 -19 23 -28 15 -48 -5 -13
-14 -28 -21 -32 -20 -12 2 -22 30 -12 15 5 34 22 43 37 14 27 14 29 -16 56
-30 27 -30 27 -7 45 28 21 29 40 2 64 -26 25 -125 28 -134 4z"/>
</g>
<g>
<path d="M6282 565 c-40 -18 -55 -54 -49 -124 5 -63 31 -90 88 -91 72 0 106
81 52 127 -27 24 -63 31 -63 13 0 -5 7 -10 15 -10 13 0 15 -11 13 -57 -3 -51
-6 -58 -24 -61 -20 -3 -22 2 -26 50 -2 29 0 55 4 56 4 2 8 8 8 13 0 6 -4 7
-10 4 -6 -4 -10 8 -10 28 0 27 5 36 25 45 35 16 45 15 68 -5 19 -17 19 -17 16
2 -5 26 -60 31 -107 10z"/>
</g>
<g>
<path d="M6450 578 c0 -2 9 -21 20 -43 31 -61 21 -185 -16 -212 -12 -9 -13
-13 -5 -13 25 0 79 68 86 108 8 50 -17 115 -56 143 -16 11 -29 19 -29 17z"/>
</g>
<g>
<path d="M2225 511 c-45 -19 -57 -100 -21 -140 17 -19 62 -25 72 -10 3 5 -4 9
-15 9 -15 0 -23 9 -29 33 -11 42 -1 79 27 93 19 10 20 12 6 18 -9 3 -17 6 -18
5 -1 0 -11 -4 -22 -8z"/>
</g>
<g>
<path d="M46 443 c-16 -16 -2 -24 36 -21 54 4 62 25 9 26 -21 0 -42 -2 -45 -5z"/>
</g>
<g>
<path d="M4513 437 c2 -7 23 -13 46 -15 32 -2 42 0 39 10 -3 8 -22 14 -47 15
-29 1 -41 -2 -38 -10z"/>
</g>
<g>
<path d="M6012 385 c2 -24 8 -31 28 -33 22 -3 23 -2 9 10 -9 7 -22 22 -28 33
-10 18 -11 17 -9 -10z"/>
</g>
<g>
<path d="M2510 360 c0 -6 16 -10 35 -10 19 0 35 4 35 8 0 5 -16 9 -35 10 -19
1 -35 -3 -35 -8z"/>
</g>
</g>
</svg>
